<svg id="Branding_Logo" data-name="Branding / Logo" xmlns="http://www.w3.org/2000/svg" xmlns:xlink="http://www.w3.org/1999/xlink" width="293.363" height="170.572" viewBox="0 0 293.363 170.572">
  <defs>
    <linearGradient id="linear-gradient" y1="0.5" x2="1" y2="0.5" gradientUnits="objectBoundingBox">
      <stop offset="0" stop-color="#540000"/>
      <stop offset="0.44" stop-color="#790000"/>
    </linearGradient>
    <linearGradient id="linear-gradient-2" x1="0.008" y1="0.5" x2="1.008" y2="0.5" gradientUnits="objectBoundingBox">
      <stop offset="0.5" stop-color="#730000"/>
      <stop offset="1" stop-color="#530000"/>
    </linearGradient>
    <linearGradient id="linear-gradient-3" x1="0.91" y1="0.672" x2="0.037" y2="0.305" gradientUnits="objectBoundingBox">
      <stop offset="0" stop-color="#5b0000"/>
      <stop offset="0.05" stop-color="#6c0607"/>
      <stop offset="0.17" stop-color="#8d1316"/>
      <stop offset="0.29" stop-color="#a41c20"/>
      <stop offset="0.4" stop-color="#b22126"/>
      <stop offset="0.49" stop-color="#b72328"/>
      <stop offset="0.68" stop-color="#97171a"/>
      <stop offset="1" stop-color="#5b0000"/>
    </linearGradient>
    <linearGradient id="linear-gradient-4" x1="-0.001" y1="0.5" x2="1" y2="0.5" xlink:href="#linear-gradient-2"/>
    <linearGradient id="linear-gradient-5" y1="0.5" x2="1" y2="0.5" gradientUnits="objectBoundingBox">
      <stop offset="0" stop-color="#5b0000"/>
      <stop offset="0.05" stop-color="#6a0606"/>
      <stop offset="0.13" stop-color="#911417"/>
      <stop offset="0.21" stop-color="#b72328"/>
      <stop offset="0.5" stop-color="#c4161c"/>
      <stop offset="0.78" stop-color="#b72328"/>
      <stop offset="0.86" stop-color="#97171a"/>
      <stop offset="1" stop-color="#5b0000"/>
    </linearGradient>
  </defs>
  <g id="Layer_1" data-name="Layer 1">
    <path id="Trazado_142" data-name="Trazado 142" d="M133.477,87.2c-165.313,36.326-130.66-.512-128.8-1.7,0,0,13.814-13.512,49.116-16.556s73.7-6.851,73.7-6.851Z" transform="translate(-0.208 -30.323)" fill="url(#linear-gradient)"/>
    <path id="Trazado_143" data-name="Trazado 143" d="M261.64,219.767c165.691-39.943,147.406,4.062,142.044,10.913-2.87,3.668-12.085,11.926-45.315,5.075-25.878-5.326-61.943,6.088-61.943,6.088Z" transform="translate(-127.777 -99.242)" fill="url(#linear-gradient-2)"/>
    <path id="Trazado_144" data-name="Trazado 144" d="M193.8,0C147.332,0,109.65,38.183,109.65,85.284s37.682,85.289,84.153,85.289,84.148-38.183,84.148-85.289S240.295,0,193.8,0Z" transform="translate(-53.55 0)" fill="url(#linear-gradient-3)"/>
    <path id="Trazado_145" data-name="Trazado 145" d="M197.592,170.4c-44.2,0-80.172-36.459-80.172-81.262S153.388,7.88,197.592,7.88,277.8,44.334,277.8,89.137,241.823,170.4,197.592,170.4Zm0-160.324c-42.977,0-77.978,35.466-77.978,79.062S154.6,168.2,197.592,168.2s78.018-35.471,78.018-79.067-35-79.062-78.018-79.062Z" transform="translate(-57.344 -3.848)" fill="#fff"/>
    <path id="Trazado_146" data-name="Trazado 146" d="M562.239,137.958a5.147,5.147,0,0,1-7.163,0,4.942,4.942,0,0,1,0-7.055,5.024,5.024,0,0,1,3.581-1.443,4.961,4.961,0,0,1,3.581,8.5Zm-6.692-6.559a4.293,4.293,0,0,0,0,6.073,4.436,4.436,0,0,0,6.221,0,4.318,4.318,0,0,0,0-6.073,4.472,4.472,0,0,0-6.211,0Zm3.019.292a4.6,4.6,0,0,1,1.535.184,1.371,1.371,0,0,1,.865,1.392,1.156,1.156,0,0,1-.552,1.069,1.78,1.78,0,0,1-.778.261,1.433,1.433,0,0,1,.957.542,1.6,1.6,0,0,1,.281.849v.8a.91.91,0,0,0,.051.287v.072h-.89a.064.064,0,0,0-.036-.056.118.118,0,0,0,0-.061v-.614a1.315,1.315,0,0,0-.512-1.248,2.4,2.4,0,0,0-1.1-.174h-.793v2.154h-.982V131.69Zm1.069.87a2.891,2.891,0,0,0-1.213-.2h-.854V134.3h.9a2.788,2.788,0,0,0,.941-.113.814.814,0,0,0,.588-.834C559.993,132.954,559.886,132.683,559.635,132.56Z" transform="translate(-270.36 -63.224)" fill="url(#linear-gradient-4)"/>
    <path id="Trazado_147" data-name="Trazado 147" d="M.1,165.132c-.691,9.266,14.735,21.8,133.658-6.7,120.5-28.876,141.962-14.546,144.761-1.535l-.154-64.6c-3.407-12.827-26.165-26.19-144.607,2.195C9.867,124.176-.473,108.126.268,100.053Z" transform="translate(-0.037 -38.281)" fill="url(#linear-gradient-5)"/>
    <path id="Trazado_148" data-name="Trazado 148" d="M279.159,92.531c-2.047-7.674-13.548-12.791-29.941-13.9-23.949-1.591-62.721,3.96-115.209,16.51C84.816,106.908,48.762,112.8,26.178,112.8h0c-12.791,0-21.048-1.719-25.131-5.515a4.553,4.553,0,0,1-.829-1.131l-.138-6.7c1.023,3.581,1.433,3.909,2.988,5.367,5.868,5.454,30.575,11.056,130.159-12.755,52.826-12.627,91.93-18.209,116.222-16.587,15.247,1.023,25.674,5.275,29.736,12.028Z" transform="translate(-0.039 -36.728)" fill="#fff"/>
    <path id="Trazado_149" data-name="Trazado 149" d="M279.15,217.167c-.762-3.535-5.377-6.7-8.964-8.882-7.306-4.446-20.511-6.232-39.242-5.3-23.678,1.177-56.453,6.743-97.409,16.531C84.342,231.283,48.277,237.161,25.7,237.161h0q-18.419,0-24.814-5.219a2.144,2.144,0,0,1-.808-1.5L0,225.5a8.768,8.768,0,0,0,2.988,4.047c6.344,5.173,31.634,10.366,129.77-13.1,74.805-17.907,121.62-21.529,139.163-10.841,2.6,1.591,5.776,3.136,7.163,5.142Z" transform="translate(0 -97.486)" fill="#fff"/>
    <path id="Trazado_150" data-name="Trazado 150" d="M41.115,196.495c-.077.2-.194.389-.276.588-1.473,3.131-4.262,5.075-7.245,4.922a8.518,8.518,0,0,1-6.539-4.487C25.418,194.7,24.5,190.212,24.5,184.86c0-10,3.315-15.523,8.846-15.247a9.26,9.26,0,0,1,6.723,3.249c.568.68,1.156,1.315,1.714,1.985V163.285c-.22-.082-.44-.154-.675-.235a26.446,26.446,0,0,0-7.818-1.632c-5.3-.24-9.4,1.356-12.607,5.275s-5.091,10.12-5.091,17.426c0,6.979,1.683,13.589,4.743,18.536a15.379,15.379,0,0,0,12.494,7.772,17.4,17.4,0,0,0,8.7-1.668c.118-.036.2-.143.3-.159.082-.148.153-.317.246-.466.471-3.888.972-7.777,1.463-11.681C42.752,196.495,41.934,196.464,41.115,196.495Z" transform="translate(-7.614 -78.82)" fill="#8b0304"/>
    <path id="Trazado_151" data-name="Trazado 151" d="M32.994,210.519c-.379,0-.752,0-1.136-.031a16.415,16.415,0,0,1-13.3-8.258c-3.157-5.116-4.9-11.875-4.9-19.079,0-7.46,1.893-13.881,5.326-18.081,3.326-4.062,7.726-5.909,13.456-5.628a27.3,27.3,0,0,1,8.114,1.688l.276.092.409.143.68.251v15.119l-1.852-2.185c-.261-.312-.512-.614-.8-.921s-.619-.7-.921-1.064a8.253,8.253,0,0,0-5.966-2.88,5.49,5.49,0,0,0-4.216,1.535c-2.292,2.18-3.581,6.687-3.581,12.694,0,5.157.854,9.465,2.415,12.141a7.371,7.371,0,0,0,5.674,3.965c2.558.128,4.937-1.535,6.257-4.328a3.289,3.289,0,0,1,.153-.317c.031-.067.072-.133.1-.2l.251-.64h4.334l-.455,3.581q-.553,4.579-1.12,9.184l-.026.225-.123.194c-.036.067-.072.133-.1.2s-.077.148-.113.22l-.246.445-.333.051a1.023,1.023,0,0,1-.225.113,17.851,17.851,0,0,1-8.033,1.775Zm-1.642-49.055a13,13,0,0,0-10.785,4.912c-3.131,3.832-4.855,9.787-4.855,16.776,0,6.825,1.627,13.215,4.6,17.994,2.768,4.5,6.8,7.014,11.67,7.281a16.244,16.244,0,0,0,8.186-1.535h0c.368-3.024.752-6.037,1.136-9.061l.153-1.279h-.619c-1.719,3.581-4.866,5.7-8.237,5.52-2.829-.128-5.628-2.047-7.362-4.988s-2.712-7.695-2.712-13.19c0-6.651,1.448-11.578,4.2-14.187a7.48,7.48,0,0,1,5.735-2.093,10.3,10.3,0,0,1,7.352,3.494V163.05a25.453,25.453,0,0,0-7.5-1.566c-.317-.015-.64-.02-.962-.02Z" transform="translate(-6.671 -77.854)" fill="#8b0304"/>
    <path id="Trazado_152" data-name="Trazado 152" d="M92.476,158.008c-9.45,1.264-15.7,11.005-15.349,25.484s6.994,24.1,16.439,22.854c9.562-1.233,15.656-12.514,15.349-26.958C108.551,164.684,102.186,156.759,92.476,158.008Zm.128,8.217c4.487-.593,7.163,4.773,7.4,14.981.2,9.388-2.348,15.722-6.707,16.3s-7.219-5.06-7.429-14.443C85.645,173,88.173,166.782,92.6,166.224Z" transform="translate(-37.66 -77.104)" fill="#8b0304"/>
    <path id="Trazado_153" data-name="Trazado 153" d="M90.9,206.522a12.433,12.433,0,0,1-8.186-3.1c-4.717-4.032-7.526-11.65-7.72-20.915-.327-14.776,6.073-25.208,16.311-26.574h0a13.465,13.465,0,0,1,10.683,2.967c4.339,3.725,6.738,10.453,6.933,19.442.338,15.236-6.354,26.768-16.275,28.048A13.373,13.373,0,0,1,90.9,206.522Zm.675-48.456c-9.071,1.213-14.735,10.79-14.433,24.395.189,8.662,2.727,15.707,6.963,19.329a10.2,10.2,0,0,0,8.283,2.481c8.785-1.136,14.7-11.767,14.392-25.868-.184-8.375-2.323-14.556-6.186-17.871a11.249,11.249,0,0,0-9.02-2.466Zm.107,39.539a5.439,5.439,0,0,1-3.581-1.376c-2.645-2.277-4.19-7.306-4.344-14.157-.235-10.744,2.558-17.278,7.674-17.907a5.352,5.352,0,0,1,4.359,1.284c2.66,2.272,4.093,7.229,4.257,14.74.22,10.079-2.707,16.741-7.649,17.4A5.587,5.587,0,0,1,91.678,197.6Zm.542-31.358a4.448,4.448,0,0,0-.512.031h0c-3.776.476-5.991,6.508-5.792,15.738.138,6.14,1.448,10.744,3.581,12.576a3.182,3.182,0,0,0,2.614.824c3.694-.481,5.955-6.452,5.766-15.2-.148-6.682-1.392-11.353-3.5-13.159a3.218,3.218,0,0,0-2.159-.808Z" transform="translate(-36.616 -76.092)" fill="#8b0304"/>
    <path id="Trazado_154" data-name="Trazado 154" d="M163.2,170.735c4.477-2.558,7.373-8.033,7.373-14.361,0-7.92-3.97-11.681-10.171-9.885l-4.876,1.734-5.567,1.919-4.354.721c.159.568.368,1.126.512,1.7.931,2.768,1.269,5.628,1.269,11.839v32.826c2.737-.553,5.014-.849,8.053-1.576,0,0,.169-13.814.169-17.58,2.84,4.344,9.562,15.62,9.654,15.692,3.208-.716,6.421-1.438,9.813-2.246C175.105,191.517,163.87,171.876,163.2,170.735Zm-1.259-11.128c0,3.5-1.479,6.319-3.7,6.938a1.739,1.739,0,0,0-.363.1,12.637,12.637,0,0,1-2.256.537V155.6c.665-.24,2.047-.808,2.047-.808,2.563-.706,4.293,1.192,4.293,4.814Z" transform="translate(-71.112 -71.325)" fill="#8b0304"/>
    <path id="Trazado_155" data-name="Trazado 155" d="M145.012,197.535V163.383c0-5.909-.3-8.805-1.207-11.5-.087-.3-.174-.553-.256-.8s-.21-.634-.3-.952l-.322-1.161,1.192-.2,4.267-.7c3.73-1.289,4.988-1.724,5.474-1.873h0c4.912-1.745,4.932-1.75,5.024-1.77a8.59,8.59,0,0,1,7.705.987c2.476,1.857,3.781,5.3,3.781,9.956,0,6.211-2.655,11.767-7,14.725,2.307,4.052,11.256,19.708,11.363,19.882l.721,1.259-1.412.338c-3.28.778-6.39,1.479-9.823,2.246l-.512.113-.4-.312c-.189-.148-.189-.148-2.108-3.315-1.576-2.6-3.914-6.472-5.812-9.527-.046,5.449-.148,13.773-.154,13.881v.844l-.819.2c-1.949.466-3.581.757-5.208,1.023-.941.169-1.883.338-2.886.537Zm.7-46.824c.056.174.113.353.164.512.977,2.9,1.31,5.966,1.31,12.141v31.511l1.637-.3c1.335-.24,2.712-.512,4.257-.829.036-3.07.159-13.543.159-16.715v-3.643l2,3.07c1.924,2.947,5.628,9.056,7.833,12.709.568.941,1.09,1.806,1.427,2.353,2.64-.594,5.116-1.151,7.634-1.745-2.492-4.354-10.621-18.567-11.164-19.529l-.512-.936.931-.512c4.211-2.415,6.83-7.557,6.83-13.42,0-3.893-1.023-6.815-2.916-8.222-1.484-1.11-3.459-1.315-5.868-.619-.22.072-4.825,1.714-4.825,1.714l-.189.061c-.906.307-5.387,1.857-5.387,1.857L149,150.1a30.419,30.419,0,0,1-3.285.614Zm7.531,16.582V153.826l.711-.261c.65-.235,2-.793,2-.793l.123-.041a4.047,4.047,0,0,1,3.643.583c1.3.993,2.021,2.865,2.021,5.275,0,4.021-1.8,7.229-4.487,7.981h-.087c-.164.051-.256.082-.353.1a11.593,11.593,0,0,1-2.435.558Zm2.169-11.962v9.506l.87-.246.138-.041a1.4,1.4,0,0,0,.266-.077c1.693-.512,2.87-2.911,2.87-5.884,0-1.693-.425-2.983-1.166-3.546a1.888,1.888,0,0,0-1.683-.24Z" transform="translate(-69.803 -70.308)" fill="#8b0304"/>
    <path id="Trazado_156" data-name="Trazado 156" d="M216.316,133.244c-9.317,1.642-14.709,12.279-13.338,26.774s8.6,23.274,17.907,21.647,14.7-12.448,13.338-26.912C232.842,140.029,225.838,131.643,216.316,133.244ZM225.5,156.35c.89,9.394-1.213,15.707-5.48,16.434s-7.541-4.646-8.432-14.039c-.952-10.084,1.105-16.515,5.474-17.268S224.538,146.127,225.5,156.35Z" transform="translate(-99.025 -64.978)" fill="#8b0304"/>
    <path id="Trazado_157" data-name="Trazado 157" d="M217.719,181.915a12.821,12.821,0,0,1-7.864-2.706c-4.927-3.714-8.109-10.877-8.979-20.087-1.417-14.965,4.3-26.19,14.223-27.935h0a13.139,13.139,0,0,1,10.453,2.522c4.748,3.633,7.848,10.744,8.7,19.954,1.422,15.052-4.293,26.334-14.228,28.068A13.685,13.685,0,0,1,217.719,181.915Zm-2.226-48.6c-8.744,1.535-13.748,11.834-12.443,25.607.8,8.5,3.76,15.277,8.12,18.593a10.58,10.58,0,0,0,8.508,2.077c8.759-1.535,13.758-11.875,12.448-25.745-.814-8.621-3.612-15.17-7.879-18.419a10.918,10.918,0,0,0-8.774-2.133Zm2.737,39.626a5.536,5.536,0,0,1-3.387-1.182c-2.794-2.123-4.692-7.06-5.336-13.911-1.023-10.836,1.294-17.554,6.365-18.419a5.377,5.377,0,0,1,4.323,1.074c2.809,2.139,4.666,7.245,5.377,14.766h0c.962,10.166-1.422,16.746-6.375,17.595A5.228,5.228,0,0,1,218.23,172.935Zm-1.371-31.45a3.2,3.2,0,0,0-.619.056c-3.7.64-5.459,6.81-4.579,16.1.578,6.14,2.215,10.667,4.492,12.392a3.285,3.285,0,0,0,2.671.691c3.612-.619,5.413-6.615,4.6-15.272h0c-.645-6.8-2.256-11.512-4.538-13.251a3.244,3.244,0,0,0-2.052-.737Z" transform="translate(-97.997 -63.958)" fill="#8b0304"/>
    <path id="Trazado_158" data-name="Trazado 158" d="M288.682,113.937c.169.512.4,1.023.558,1.535,1.023,2.558,1.259,5.357,1.259,11.491v11.7c-2.047-3.208-14.735-22.614-14.735-22.614-.174.24-.409.4-.588.64-2.788,3.07-5.567,6.14-8.365,9.245.425.215.875.379,1.294.588a3.581,3.581,0,0,1,2.006,2c.583,1.494.727,2.66.727,7.362v30.058c2.625-.9,5.321-1.223,7.961-2.072-.174-.512-.414-1-.563-1.535-.987-2.5-1.32-5.9-1.32-12.039V136.413a3.915,3.915,0,0,0,.512.675c3.7,4.978,9.568,17.4,12.791,24.231.1.1.077.256.164.363,1.99-.593,4-1.156,6-1.714,0-15.385.23-32.929.23-48.318C293.937,112.341,291.307,113.139,288.682,113.937Z" transform="translate(-130.302 -54.527)" fill="#8b0304"/>
    <path id="Trazado_159" data-name="Trazado 159" d="M268.1,166.129V134.567c0-4.635-.143-5.654-.655-6.974a2.512,2.512,0,0,0-1.473-1.422c-.2-.1-.4-.184-.594-.271s-.481-.21-.711-.327l-1.264-.634.952-1.023q2.016-2.226,4.027-4.456c1.433-1.586,2.865-3.177,4.3-4.758a4.635,4.635,0,0,1,.374-.4,1.437,1.437,0,0,0,.174-.179l.916-1.269.854,1.31c.1.159,8.59,13.134,12.755,19.554v-8.074c0-6.2-.276-8.79-1.182-11.1l-.031-.087c-.077-.251-.174-.512-.271-.742s-.194-.512-.276-.752l-.343-1.023,1.049-.317c2.666-.813,5.28-1.6,7.941-2.3l1.351-.353v1.392c0,7.674-.056,16.075-.113,24.169s-.118,16.459-.118,24.149v.813l-.783.22c-1.99.553-4,1.12-5.976,1.709l-.686.2-.455-.547a1.356,1.356,0,0,1-.256-.486l-.051-.107c-2.768-5.868-7.618-16.168-11.23-21.918V149.02c0,6.186.338,9.342,1.248,11.65l.036.1a5.894,5.894,0,0,0,.271.742c.1.235.189.476.276.727l.343,1.023-1.023.333c-1.31.425-2.625.721-3.9,1.023a39.076,39.076,0,0,0-4.047,1.064Zm-1.167-41.882a4.671,4.671,0,0,1,2.492,2.512c.68,1.745.824,3.121.824,7.807v28.605c.957-.266,1.914-.481,2.85-.691s1.76-.394,2.614-.629c-.056-.154-.113-.307-.159-.466-1.023-2.558-1.376-5.945-1.376-12.387V135.1l2.047-.512a2.967,2.967,0,0,0,.338.44l.077.092c3.684,4.953,9.429,17.083,12.663,23.944,1.438-.425,2.891-.834,4.333-1.238,0-7.47.061-15.538.113-23.351.051-7.6.107-15.451.113-22.752-1.8.512-3.581,1.023-5.413,1.581.061.159.118.322.169.481,1.023,2.558,1.315,5.367,1.315,11.839v15.405l-1.985-3.131c-1.724-2.712-11.2-17.211-13.967-21.442l-3.98,4.4Q268.455,122.564,266.93,124.247Z" transform="translate(-128.637 -53.218)" fill="#8b0304"/>
    <path id="Trazado_160" data-name="Trazado 160" d="M354.834,102.15c-.169.041-.338.051-.512.092-2.415.44-4.82.921-7.219,1.468.082,1.3.246,2.62.338,3.934,0,2.047-.317,3.489-2.047,9.573-3.356,11.645-7.393,25.7-10.744,37.441,3.177-.86,6.365-1.693,9.567-2.41-.082-1.289.307-5,.23-6.283a30.98,30.98,0,0,1,1.074-7.547c.89-.21,9.409-1.873,10.263-2.047.164.481.327,1.2.327,1.2a53.073,53.073,0,0,1,1.612,8.923l-.276,3.274c.394-.061.793-.082,1.192-.113,3.326-.553,6.651-.982,10.018-1.33C364.217,133.62,359.275,116.614,354.834,102.15Zm-.941,27.6c-1.213.23-5.178,1.023-6.411,1.3.425-1.366,2.446-9.04,3.274-12.218C351.483,121.515,353.652,128.821,353.892,129.752Z" transform="translate(-163.433 -49.887)" fill="#8b0304"/>
    <path id="Trazado_161" data-name="Trazado 161" d="M331.63,155.006l.512-1.816c3.367-11.767,7.4-25.8,10.744-37.446,1.724-6.053,2.006-7.352,2.006-9.276-.041-.542-.1-1.161-.159-1.78s-.133-1.392-.179-2.087l-.056-.906.885-.2c2.231-.512,4.6-.993,7.224-1.468a2.558,2.558,0,0,1,.343-.067h.143l.972-.22.292.947c2.5,8.13,5.183,17.181,7.782,25.929,2.047,6.917,4.093,13.814,6.047,20.225l.379,1.238-1.289.133c-3.581.368-6.846.8-9.951,1.32l-.389.031a5.344,5.344,0,0,0-.808.082l-1.356.225.389-4.6a51.113,51.113,0,0,0-1.571-8.59l-.056-.24c-.921.189-2.328.471-3.786.757-1.811.363-3.812.757-4.84.972a28.783,28.783,0,0,0-.885,6.651c.041.634-.036,1.857-.118,3.152-.072,1.161-.154,2.476-.113,3.07l.056.906-.89.2c-3.382.757-6.713,1.637-9.521,2.4Zm15.154-51.634c.031.368.066.742.1,1.115.061.634.123,1.269.164,1.908,0,2.226-.307,3.7-2.087,9.936-3.187,11.051-6.984,24.277-10.233,35.63,2.149-.573,4.523-1.182,6.943-1.74,0-.68.066-1.535.123-2.41.072-1.177.148-2.394.112-2.962a32.03,32.03,0,0,1,1.105-7.869l.159-.629.634-.148c.486-.113,2.942-.6,5.546-1.12,2.134-.425,4.333-.86,4.727-.952l.936-.215.312.911c.179.512.353,1.274.358,1.3a53.273,53.273,0,0,1,1.637,9.163v.113l-.169,1.99c2.727-.45,5.567-.834,8.641-1.172-1.837-6.078-3.75-12.525-5.674-19-2.507-8.421-5.086-17.119-7.5-25C350.519,102.585,348.6,102.968,346.784,103.373Zm-2.348,27.955.553-1.77c.4-1.279,2.3-8.519,3.254-12.167l1.023-3.9,1.049,3.888c.425,1.56,1.335,4.676,2.047,7.163.547,1.862.977,3.336,1.085,3.745l.281,1.1-1.12.215c-1.187.225-5.167,1.023-6.37,1.289Zm4.881-9.608c-.583,2.226-1.3,4.947-1.8,6.743,1.141-.235,2.522-.512,3.551-.716-.194-.68-.46-1.6-.752-2.589C350,124.068,349.65,122.866,349.317,121.72Z" transform="translate(-161.958 -48.71)" fill="#8b0304"/>
    <path id="Trazado_162" data-name="Trazado 162" d="M413.8,95.349c-1.944.215-3.888.414-5.817.691l-5.055.834-4.052-.051c.215.609.389,1.223.594,1.832,1.161,3.07,1.612,5.925,1.97,12.279q.952,16.843,1.9,33.706c.512.061,1.023.128,1.56.21l1.535.143a52.306,52.306,0,0,0,6.621.164c5.439-.2,8.994-1.351,12.131-4.467,4.2-4.006,6.242-11.4,5.7-20.977C430.054,105.116,423.459,95.257,413.8,95.349Zm-.286,41.079s-1.724-.128-2.42-.159c-.072-1.238-1.729-30.7-1.8-31.9.778-.107,3.111-.512,3.111-.512,7.137-.179,9.158,8.79,9.573,16.116C422.609,131.071,419.811,136.213,413.518,136.428Z" transform="translate(-194.801 -46.565)" fill="#8b0304"/>
    <path id="Trazado_163" data-name="Trazado 163" d="M409.6,145.261c-1.607,0-3.305-.072-4.758-.21l-1.494-.138h-.092c-.512-.082-1.023-.148-1.535-.2l-.906-.1-1.949-34.617c-.353-6.247-.8-9.041-1.9-11.962-.1-.3-.184-.563-.266-.824q-.164-.512-.338-1.023l-.512-1.458,5.505.072,4.958-.819c1.632-.235,3.264-.414,4.845-.588l1.141-.118c10.151-.113,17.293,9.864,18.168,25.382.553,9.823-1.591,17.569-6.037,21.821-3.172,3.157-6.9,4.538-12.837,4.763C410.979,145.246,410.3,145.261,409.6,145.261Zm-6.047-2.5,1.494.143a51.541,51.541,0,0,0,6.472.159c5.413-.2,8.611-1.366,11.409-4.149,4-3.822,5.9-10.974,5.387-20.153-.8-14.2-7.02-23.346-15.861-23.346h-.067l-.977.107c-1.566.174-3.182.348-4.758.573l-5.116.844-2.64-.031.128.389c1.182,3.116,1.658,6.063,2.021,12.561l1.852,32.811Zm8.462-6.267h-.061s-1.7-.123-2.394-.159l-.972-.046-.056-.972c-.067-1.233-1.724-30.667-1.8-31.895l-.056-1,1.023-.133c.767-.1,3.07-.512,3.07-.512h.389c6.14,0,9.828,6.073,10.453,17.14.4,7.245-.629,12.11-3.162,14.878a8.66,8.66,0,0,1-6.354,2.7Zm-1.371-2.261,1.407.1a6.461,6.461,0,0,0,4.779-2c2.087-2.282,2.962-6.754,2.594-13.3-.7-12.433-4.86-15.1-8.3-15.1h-.1l-2.047.343C409.229,109.089,410.375,129.457,410.646,134.23Z" transform="translate(-193.321 -45.549)" fill="#8b0304"/>
    <path id="Trazado_164" data-name="Trazado 164" d="M486.9,95.959c-9.419-2.047-16.244,7.163-16.884,21.775s5.352,24.916,14.766,27.014,16.162-5.377,16.792-19.954C502.217,109.968,496.513,98.149,486.9,95.959Zm-.414,8.273c4.472,1.023,6.748,7.674,6.3,17.958-.409,9.47-3.331,14.587-7.674,13.6s-6.794-7.28-6.385-16.751C479.194,108.888,482.085,103.255,486.485,104.232Z" transform="translate(-229.519 -46.725)" fill="#8b0304"/>
    <path id="Trazado_165" data-name="Trazado 165" d="M486.826,145.116a15.267,15.267,0,0,1-3.3-.379c-10.12-2.256-16.249-13.3-15.61-28.14.4-9.424,3.392-16.94,8.186-20.619a11.8,11.8,0,0,1,10-2.169h0c9.961,2.272,16.2,14.326,15.523,29.951-.379,8.805-3.013,15.507-7.419,18.869A11.962,11.962,0,0,1,486.826,145.116Zm-3.54-49.439a9.429,9.429,0,0,0-5.853,2.047c-4.287,3.29-6.963,10.233-7.342,19-.588,13.722,4.876,23.893,13.921,25.909a10.322,10.322,0,0,0,8.9-1.688c3.888-2.967,6.221-9.092,6.574-17.242.629-14.561-4.932-25.715-13.84-27.751A11.149,11.149,0,0,0,483.286,95.678Zm1.847,40.25a5.71,5.71,0,0,1-1.264-.148c-4.958-1.1-7.674-7.772-7.229-17.851.327-7.6,1.98-12.74,4.768-14.878a5.06,5.06,0,0,1,4.3-.941h0c5.014,1.131,7.623,8.079,7.163,19.058-.3,6.9-1.873,11.624-4.554,13.671a5.167,5.167,0,0,1-3.193,1.09Zm-.624-31.788a2.85,2.85,0,0,0-1.78.629c-2.2,1.683-3.627,6.513-3.919,13.251-.374,8.7,1.8,14.837,5.536,15.651a3.029,3.029,0,0,0,2.64-.553c2.093-1.6,3.443-5.986,3.7-12.044.42-9.69-1.622-15.988-5.454-16.853a3.3,3.3,0,0,0-.737-.082Z" transform="translate(-228.494 -45.656)" fill="#8b0304"/>
    <path id="Trazado_166" data-name="Trazado 166" d="M41.115,196.495c-.077.2-.194.389-.276.588-1.473,3.131-4.262,5.075-7.245,4.922a8.518,8.518,0,0,1-6.539-4.487C25.418,194.7,24.5,190.212,24.5,184.86c0-10,3.315-15.523,8.846-15.247a9.26,9.26,0,0,1,6.723,3.249c.568.68,1.156,1.315,1.714,1.985V163.285c-.22-.082-.44-.154-.675-.235a26.446,26.446,0,0,0-7.818-1.632c-5.3-.24-9.4,1.356-12.607,5.275s-5.091,10.12-5.091,17.426c0,6.979,1.683,13.589,4.743,18.536a15.379,15.379,0,0,0,12.494,7.772,17.4,17.4,0,0,0,8.7-1.668c.118-.036.2-.143.3-.159.082-.148.153-.317.246-.466.471-3.888.972-7.777,1.463-11.681C42.752,196.495,41.934,196.464,41.115,196.495Z" transform="translate(-7.614 -78.82)" fill="#fff"/>
    <path id="Trazado_167" data-name="Trazado 167" d="M92.476,158.008c-9.45,1.264-15.7,11.005-15.349,25.484s6.994,24.1,16.439,22.854c9.562-1.233,15.656-12.514,15.349-26.958C108.551,164.684,102.186,156.759,92.476,158.008Zm.128,8.217c4.487-.593,7.163,4.773,7.4,14.981.2,9.388-2.348,15.722-6.707,16.3s-7.219-5.06-7.429-14.443C85.645,173,88.173,166.782,92.6,166.224Z" transform="translate(-37.66 -77.104)" fill="#fff"/>
    <path id="Trazado_168" data-name="Trazado 168" d="M163.563,170.735c4.513-2.558,7.5-8.033,7.6-14.361.123-7.92-3.786-11.681-10.018-9.885l-4.917,1.734-5.6,1.919-4.369.721c.153.568.353,1.126.512,1.7.885,2.768,1.177,5.628,1.08,11.839-.174,11.087-.353,21.749-.512,32.826,2.809-.512,5.459-1.074,8.258-1.668,0,0,.215-13.727.276-17.488,2.773,4.344,9.327,15.62,9.419,15.692,3.326-.767,6.518-1.473,9.859-2.246C175.136,191.517,164.188,171.876,163.563,170.735ZM162.5,159.607c-.056,3.5-1.581,6.319-3.807,6.938a1.878,1.878,0,0,0-.368.1,12.678,12.678,0,0,1-2.267.537c0-1.049.159-10.5.174-11.583.67-.24,2.047-.808,2.047-.808C160.836,154.086,162.535,155.985,162.5,159.607Z" transform="translate(-71.429 -71.325)" fill="#fff"/>
    <path id="Trazado_169" data-name="Trazado 169" d="M216.316,133.244c-9.317,1.642-14.709,12.279-13.338,26.774s8.6,23.274,17.907,21.647,14.7-12.448,13.338-26.912C232.842,140.029,225.838,131.643,216.316,133.244ZM225.5,156.35c.89,9.394-1.213,15.707-5.48,16.434s-7.541-4.646-8.432-14.039c-.952-10.084,1.105-16.515,5.474-17.268S224.538,146.127,225.5,156.35Z" transform="translate(-99.025 -64.978)" fill="#fff"/>
    <path id="Trazado_170" data-name="Trazado 170" d="M288.682,113.937c.169.512.4,1.023.558,1.535,1.023,2.558,1.259,5.357,1.259,11.491v11.7c-2.047-3.208-14.735-22.614-14.735-22.614-.174.24-.409.4-.588.64-2.788,3.07-5.567,6.14-8.365,9.245.425.215.875.379,1.294.588a3.581,3.581,0,0,1,2.006,2c.583,1.494.727,2.66.727,7.362v30.058c2.625-.9,5.321-1.223,7.961-2.072-.174-.512-.414-1-.563-1.535-.987-2.5-1.32-5.9-1.32-12.039V136.413a3.915,3.915,0,0,0,.512.675c3.7,4.978,9.568,17.4,12.791,24.231.1.1.077.256.164.363,1.99-.593,4-1.156,6-1.714,0-15.385.23-32.929.23-48.318C293.937,112.341,291.307,113.139,288.682,113.937Z" transform="translate(-130.302 -54.527)" fill="#fff"/>
    <path id="Trazado_171" data-name="Trazado 171" d="M354.834,102.15c-.169.041-.338.051-.512.092-2.415.44-4.82.921-7.219,1.468.082,1.3.246,2.62.338,3.934,0,2.047-.317,3.489-2.047,9.573-3.356,11.645-7.393,25.7-10.744,37.441,3.177-.86,6.365-1.693,9.567-2.41-.082-1.289.307-5,.23-6.283a30.98,30.98,0,0,1,1.074-7.547c.89-.21,9.409-1.873,10.263-2.047.164.481.327,1.2.327,1.2a53.073,53.073,0,0,1,1.612,8.923l-.276,3.274c.394-.061.793-.082,1.192-.113,3.326-.553,6.651-.982,10.018-1.33C364.217,133.62,359.275,116.614,354.834,102.15Zm-.941,27.6c-1.213.23-5.178,1.023-6.411,1.3.425-1.366,2.446-9.04,3.274-12.218C351.483,121.515,353.652,128.821,353.892,129.752Z" transform="translate(-163.433 -49.887)" fill="#fff"/>
    <path id="Trazado_172" data-name="Trazado 172" d="M413.8,95.349c-1.944.215-3.888.414-5.817.691l-5.055.834-4.052-.051c.215.609.389,1.223.594,1.832,1.161,3.07,1.612,5.925,1.97,12.279q.952,16.843,1.9,33.706c.512.061,1.023.128,1.56.21l1.535.143a52.306,52.306,0,0,0,6.621.164c5.439-.2,8.994-1.351,12.131-4.467,4.2-4.006,6.242-11.4,5.7-20.977C430.054,105.116,423.459,95.257,413.8,95.349Zm-.286,41.079s-1.724-.128-2.42-.159c-.072-1.238-1.729-30.7-1.8-31.9.778-.107,3.111-.512,3.111-.512,7.137-.179,9.158,8.79,9.573,16.116C422.609,131.071,419.811,136.213,413.518,136.428Z" transform="translate(-194.801 -46.565)" fill="#fff"/>
    <path id="Trazado_173" data-name="Trazado 173" d="M486.9,95.959c-9.419-2.047-16.244,7.163-16.884,21.775s5.352,24.916,14.766,27.014,16.162-5.377,16.792-19.954C502.217,109.968,496.513,98.149,486.9,95.959Zm-.414,8.273c4.472,1.023,6.748,7.674,6.3,17.958-.409,9.47-3.331,14.587-7.674,13.6s-6.794-7.28-6.385-16.751C479.194,108.888,482.085,103.255,486.485,104.232Z" transform="translate(-229.519 -46.725)" fill="#fff"/>
    <path id="Trazado_174" data-name="Trazado 174" d="M178.307,84.34l-.153,2.348-3.525.793-.819,12.392-2.2.512.824-12.392L169,88.771l.153-2.348Z" transform="translate(-82.535 -41.189)" fill="#fff"/>
    <path id="Trazado_175" data-name="Trazado 175" d="M190.6,96.833l-2.215.512.977-14.745,4.052-.911c2.666-.6,4.287.082,4.093,3.07a5.689,5.689,0,0,1-2.348,4.374c.476.113.686.435.911,1.126l1.637,4.963-2.359.512-1.438-4.267c-.21-.629-.486-1.023-1.12-.88l-1.8.4Zm2.343-8.324a3.005,3.005,0,0,0,2.292-3.029c.123-1.883-.8-1.913-2.527-1.535l-1.274.287-.307,4.676Z" transform="translate(-91.999 -39.796)" fill="#fff"/>
    <path id="Trazado_176" data-name="Trazado 176" d="M207.45,92.659,212.6,76.978l2.471-.558L218.368,90.2,216,90.715l-.829-3.658-4.252.957-1.33,4.144ZM211.5,85.9l3.377-.757-1.218-5.95H213.6Z" transform="translate(-101.312 -37.321)" fill="#fff"/>
    <path id="Trazado_177" data-name="Trazado 177" d="M232.677,72.87l3.945-.89c3.469-.778,5.515.967,5.214,5.577-.389,5.807-3.177,8.488-6.1,9.148l-4.037.906Zm1.381,12.115,1.852-.42c2.047-.455,3.428-2.558,3.663-6.109.261-3.991-1.243-4.743-3.208-4.3l-1.617.368Z" transform="translate(-113.155 -35.065)" fill="#fff"/>
    <path id="Trazado_178" data-name="Trazado 178" d="M254.64,82.977l.977-14.745,2.215-.512-.962,14.755Z" transform="translate(-124.359 -33.072)" fill="#fff"/>
    <path id="Trazado_179" data-name="Trazado 179" d="M272.119,74.625l1.023,1.535a7.422,7.422,0,0,1-4.236,2.942c-3.29.742-5.214-1.294-4.881-6.349.384-5.787,3.418-8.37,6-8.948a3.387,3.387,0,0,1,3.96,1.816l-1.673,1.75a2.291,2.291,0,0,0-2.558-1.259c-1.873.42-3.234,2.6-3.459,5.955s.655,5.265,2.87,4.768A5.716,5.716,0,0,0,272.119,74.625Z" transform="translate(-128.924 -31.1)" fill="#fff"/>
    <path id="Trazado_180" data-name="Trazado 180" d="M285,76.137l1.023-14.745,2.215-.512-.977,14.745Z" transform="translate(-139.186 -29.732)" fill="#fff"/>
    <path id="Trazado_181" data-name="Trazado 181" d="M299.091,67.25c-3.234.727-4.988-1.392-4.651-6.447.374-5.674,3.32-8.3,5.863-8.877,2.706-.609,4.917.906,4.543,6.534C304.51,63.561,302.274,66.554,299.091,67.25Zm.276-2.272c2.2-.512,3.044-3.285,3.223-5.945.148-2.261-.22-5.321-2.558-4.8-2.18.512-3.152,3.31-3.326,5.95-.159,2.548.174,5.377,2.66,4.814Zm2.42-18.419c.512.261.993.65.957,1.228a2.077,2.077,0,0,1-.8,1.294c-.727.686-1.878,1.6-2.845,2.41l-.481-.788Z" transform="translate(-143.776 -22.739)" fill="#fff"/>
    <path id="Trazado_182" data-name="Trazado 182" d="M328.489,50.27l-.977,14.74-2.123.481-4.528-9.209h-.036l-.686,10.4-2.18.512.977-14.745,2.231-.512,4.41,9.1h.036l.675-10.233Z" transform="translate(-155.282 -24.55)" fill="#fff"/>
    <path id="Trazado_183" data-name="Trazado 183" d="M204.129,263.242l3.95-.865c3.474-.757,5.515,1,5.183,5.628-.42,5.807-3.228,8.473-6.14,9.112L203.08,278Zm1.31,12.126,1.857-.4c2.047-.45,3.443-2.558,3.7-6.088.286-3.991-1.218-4.753-3.182-4.323l-1.617.358Z" transform="translate(-99.178 -128.054)" fill="#fff"/>
    <path id="Trazado_184" data-name="Trazado 184" d="M227.023,257.7l7.3-1.6-.169,2.348-5.08,1.11-.266,3.7,4.349-.952-.174,2.348-4.349.952-.287,3.986,5.2-1.136-.169,2.348L226,272.421Z" transform="translate(-110.372 -125.072)" fill="#fff"/>
    <path id="Trazado_185" data-name="Trazado 185" d="M243.718,265.463a5,5,0,0,0,3.274.547,2.471,2.471,0,0,0,2.093-2.461c.1-1.4-.906-1.591-2.149-1.734-1.76-.2-3.372-.7-3.167-3.54a5.628,5.628,0,0,1,4.41-5.239,4.093,4.093,0,0,1,4.016,1.172l-1.315,2.047a3.331,3.331,0,0,0-2.87-.921,2.348,2.348,0,0,0-1.913,2.185c-.1,1.371.926,1.56,2.256,1.775,1.607.281,3.295.762,3.07,3.617a5.72,5.72,0,0,1-4.656,5.449,5.78,5.78,0,0,1-4.047-.512Z" transform="translate(-118.537 -123.512)" fill="#fff"/>
    <path id="Trazado_186" data-name="Trazado 186" d="M264.224,250.1l3.945-.86c3.474-.762,5.515.993,5.183,5.628-.419,5.807-3.223,8.473-6.14,9.112l-4.042.885Zm1.3,12.126,1.857-.4c2.047-.45,3.443-2.558,3.7-6.088.286-3.991-1.213-4.753-3.177-4.323l-1.622.358Z" transform="translate(-128.524 -121.635)" fill="#fff"/>
    <path id="Trazado_187" data-name="Trazado 187" d="M287.085,244.571l7.3-1.571-.174,2.348-5.075,1.115-.266,3.7,4.349-.952-.169,2.348-4.349.952-.292,3.991,5.208-1.141-.174,2.348-7.444,1.6Z" transform="translate(-139.674 -118.674)" fill="#fff"/>
    <path id="Trazado_188" data-name="Trazado 188" d="M314.307,252.119l.665-9.337-2.492,2.047-.68-1.535,3.761-3.464,1.929-.42-.3,2.139-.732,10.125,2.077-.45-.148,2.047-6.39,1.4.148-2.047Z" transform="translate(-152.274 -116.921)" fill="#fff"/>
    <path id="Trazado_189" data-name="Trazado 189" d="M328.659,249.1a6.614,6.614,0,0,0,4.421-5.178,5.377,5.377,0,0,1-2.558,1.392c-2.047.445-3.029-.972-2.834-3.607.2-2.814,1.709-5.326,4.364-5.909,2.875-.629,3.694,1.919,3.433,5.51-.292,4.093-1.832,8.058-6.523,9.757Zm2.558-5.838a4.738,4.738,0,0,0,2.1-1.269c.241-2.558-.092-4.426-1.535-4.119-1.074.235-1.878,1.417-2.011,3.274-.077,1.53.425,2.338,1.458,2.113Z" transform="translate(-160.021 -115.11)" fill="#fff"/>
    <path id="Trazado_190" data-name="Trazado 190" d="M344.392,235.026a8.614,8.614,0,0,1,4.5-3.1c2.164-.476,3.111.824,2.978,2.686a5.51,5.51,0,0,1-1.673,3.581,4.124,4.124,0,0,1,1.341,3.459,5.592,5.592,0,0,1-4.369,5.229,5.475,5.475,0,0,1-3.541-.317l.788-2.241a4.856,4.856,0,0,0,2.84.338,2.558,2.558,0,0,0,2.047-2.354,2.973,2.973,0,0,0-.87-2.359,13.235,13.235,0,0,1-2.072,1.151l-.389-1.837c2.195-1.064,3.494-1.96,3.612-3.622.082-1.09-.409-1.535-1.32-1.325a6.329,6.329,0,0,0-2.932,2.164Z" transform="translate(-167.819 -113.217)" fill="#fff"/>
    <path id="Trazado_191" data-name="Trazado 191" d="M361.556,231.353a7.876,7.876,0,0,1,4.236-3.106c2.256-.512,3.346.839,3.172,3.187a9.364,9.364,0,0,1-1.867,4.553l-3.361,4.922,5.147-1.126-.153,2.149L360.65,243.7l.123-1.7,4.369-6.431a6.47,6.47,0,0,0,1.535-3.387c.107-1.2-.542-1.668-1.4-1.479a5.859,5.859,0,0,0-2.625,2.118Z" transform="translate(-176.131 -111.416)" fill="#fff"/>
  </g>
</svg>
